<svg height="512px" viewBox="0 -43 512 512" width="512px" xmlns="http://www.w3.org/2000/svg" fill="#cfcfcf"><path d="m256 270.675781c0-82.34375-3.988281-72 96-72 5.398438 0 10.710938-70.378906 15.980469-69.992187l-2.582031-14.699219c-23.832032-68.203125-95.660157-113.984375-178.730469-113.984375-102.933594 0-186.667969 71.765625-186.667969 160 0 47.382812 23.871094 91.285156 65.835938 121.792969l-22.039063 44.09375c-2.113281 4.203125-1.214844 9.300781 2.21875 12.523437 2.027344 1.921875 4.652344 2.921875 7.316406 2.921875 1.816407 0 3.648438-.445312 5.292969-1.40625l56.445312-32.257812c14.957032 5.3125 30.914063 8.960937 48.152344 10.882812l14.804688.554688c-4.714844-13.269531 77.972656-33.941407 77.972656-48.429688zm0 0"/><path d="m512 277.332031c0-70.589843-71.765625-128-160-128s-160 57.410157-160 128c0 70.59375 71.765625 128 160 128 16.492188 0 32.960938-2.089843 49.003906-6.226562l52.882813 26.453125c1.539062.746094 3.160156 1.109375 4.78125 1.109375 2.621093 0 5.203125-.960938 7.230469-2.816407 3.242187-3.007812 4.308593-7.703124 2.667968-11.820312l-14.488281-36.246094c36.4375-24.191406 57.921875-60.4375 57.921875-98.453125zm0 0"/><path d="m458.667969 426.667969c-1.621094 0-3.242188-.363281-4.78125-1.132813l-52.882813-26.453125c-16.042968 4.160157-32.511718 6.25-49.003906 6.25-88.234375 0-160-57.40625-160-128 0-70.589843 71.765625-128 160-128s160 57.410157 160 128c0 38.015625-21.484375 74.261719-57.921875 98.476563l14.488281 36.246094c1.640625 4.09375.574219 8.808593-2.667968 11.816406-2.027344 1.835937-4.609376 2.796875-7.230469 2.796875zm-56.511719-49.601563c1.640625 0 3.261719.382813 4.777344 1.132813l31.421875 15.699219-7.378907-18.472657c-1.984374-4.910156-.042968-10.519531 4.523438-13.164062 35.050781-20.480469 55.167969-51.433594 55.167969-84.929688 0-58.816406-62.210938-106.664062-138.667969-106.664062s-138.667969 47.847656-138.667969 106.664062c0 58.816407 62.210938 106.667969 138.667969 106.667969 15.9375 0 31.828125-2.199219 47.273438-6.527344.941406-.257812 1.921874-.40625 2.882812-.40625zm0 0" fill="#fff"/><path d="m53.332031 341.332031c-2.664062 0-5.289062-1-7.335937-2.921875-3.414063-3.222656-4.3125-8.320312-2.21875-12.523437l22.035156-44.09375c-41.941406-30.507813-65.8125-74.410157-65.8125-121.792969 0-88.234375 83.734375-160 186.667969-160 83.070312 0 154.898437 45.78125 178.730469 113.960938l7.785156 44.226562c1.003906 5.800781-2.902344 11.328125-8.703125 12.328125-5.761719.984375-11.328125-2.898437-12.332031-8.703125l-7.335938-42.515625c-20.078125-56.980469-85.292969-97.964844-158.144531-97.964844-91.160157 0-165.335938 62.210938-165.335938 138.667969 0 42.921875 23.339844 82.773438 64.023438 109.355469 4.542969 2.964843 6.121093 8.851562 3.710937 13.695312l-10.433594 20.886719 30.1875-17.261719c2.796876-1.597656 6.167969-1.8125 9.132813-.703125 14.632813 5.632813 30.398437 9.453125 46.867187 11.328125l38.25 1.367188c5.867188.210937 10.476563 5.160156 10.261719 11.050781-.234375 5.886719-4.203125 10.835938-11.070312 10.28125l-39.0625-1.449219c-17.238281-1.921875-33.195313-5.570312-48.148438-10.882812l-56.449219 32.257812c-1.621093.960938-3.453124 1.40625-5.269531 1.40625zm0 0"/></svg>