<svg height="511px" viewBox="0 -33 512 511" width="511px" xmlns="http://www.w3.org/2000/svg" fill="#cfcfcf"><path d="M36.03 243.78C-65.58 59.58 127-72.2 256 64.38c171.82-181.92 456.44 112.25 8.44 372.26a16.73 16.73 0 01-16.88 0c-4.28-2.48-8.5-4.97-12.63-7.46l-79.27-106.95zm0 0" fill="#cfcfcf"/><path d="M248.58 437.19a17.03 17.03 0 007.7 1.73 885.65 885.65 0 01-26.87-17.18l5.52 7.44a508.35 508.35 0 0013.65 8zm0 0" fill="#cfcfcf"/><path d="M373.03 294.75c-16.4 16.46-79.65 77.84-138.1 134.43-104.05-62.46-166.47-126.6-198.9-185.4 50.08-50.85 122.3-124.02 143.08-144.43 17.98-17.85 44.82-19.97 59.93-4.74 6.6 6.66 9.88 15.53 9.96 24.9a51.73 51.73 0 013.4-3.72c18-17.85 44.82-19.97 59.94-4.75 11.15 11.24 12.79 28.8 5.66 44.4 15.65-7.02 33.2-5.25 44.35 6 15.11 15.22 12.78 42.03-5.2 59.88a55.12 55.12 0 01-3.75 3.38c9.37.16 18.22 3.5 24.83 10.16 15.11 15.23 12.78 42.05-5.2 59.89zm0 0" fill="#cfcfcf"/><path d="M196.95 21.24c-30.67-13.87-65.88-17.5-98.25-7.46a128.4 128.4 0 00-59.97 39.77C11.95 85.45 3.26 129.06 9.6 169.63l.19 1.11c4.16 25.66 13.72 50.33 26.24 73.04l34.27 22.47c-1.47-2.5-2.9-5-4.27-7.47C-18.55 105.46 100.7-11.54 217.45 32.3a167.98 167.98 0 00-20.5-11.06zm0 0" fill="#cfcfcf"/><g fill="#cfcfcf"><path d="M286.27 134.17c-7.61-7.68-22.08-5.68-32.3 4.47-10.23 10.15-12.34 24.6-4.72 32.27 7.62 7.68 22.08 5.68 32.3-4.46 10.23-10.15 12.34-24.6 4.72-32.28zm0 0M220.04 121c-7.63-7.68-22.1-5.68-32.32 4.46-10.22 10.15-12.33 24.6-4.71 32.28s22.08 5.67 32.31-4.47c10.22-10.15 12.34-24.6 4.72-32.28zm0 0M336.28 184.56c-7.62-7.68-22.08-5.67-32.3 4.47-10.23 10.15-12.34 24.6-4.73 32.28 7.63 7.67 22.09 5.67 32.32-4.47 10.22-10.15 12.33-24.6 4.71-32.28zm0 0M351.91 253.94c-7.62-7.68-22.09-5.68-32.3 4.47-10.24 10.14-12.35 24.6-4.73 32.27 7.62 7.68 22.09 5.68 32.32-4.47 10.22-10.14 12.33-24.6 4.71-32.27zm0 0M278.71 270.64c-18.09-18.22.69-35.05-20.21-56.11-20.9-21.06-37.88-2.4-55.96-20.64-14.1-14.2-53.51-6.64-62.17 27.66-8.66 34.3 26.94 40.48 48.44 62.14 21.5 21.67 27.4 57.3 61.77 48.91 34.37-8.4 42.22-47.76 28.13-61.96zm0 0"/></g><path d="M237.27 426.9c-87.6-56.94-141.79-114.73-171.23-168.12a258.84 258.84 0 01-14.5-30.75l-15.5 15.75c11.65 21.13 27.17 42.95 47.12 65.13 1.73 1.93 3.5 3.86 5.3 5.8a508.48 508.48 0 0036.14 35.05c22.18 19.57 47.95 39.26 77.67 58.87l4.48 2.94a913.07 913.07 0 0028.18 17.61l2.34-2.27zm0 0" fill="#cfcfcf"/><path d="M274.21 122.06c-9.34.14-19.04 4.81-25.53 11.26-10.92 10.84-16.97 30.59-4.76 42.89 12.22 12.31 32 6.4 42.92-4.43 10.92-10.84 16.96-30.59 4.75-42.89-4.9-4.93-11.05-6.92-17.38-6.83zm9.11 26.27c-.84 4.88-4.14 9.92-7.05 12.8-4.84 4.8-15.61 10.65-21.7 4.5-6.08-6.12-.15-16.88 4.67-21.66 4.87-4.83 15.6-10.66 21.7-4.5 2.43 2.44 2.95 5.61 2.38 8.86zm0 0M220.6 158.6c13.14-13.05 15.28-32.28 4.76-42.89-12.22-12.3-32-6.4-42.92 4.44-10.91 10.83-16.95 30.6-4.76 42.88 12.22 12.31 32 6.4 42.92-4.43zm-34.65-15c.85-4.9 4.15-9.92 7.05-12.8 4.87-4.84 15.6-10.67 21.7-4.52 4.62 4.65 2.48 14.58-4.67 21.67-4.86 4.83-15.6 10.66-21.7 4.51-2.43-2.44-2.94-5.62-2.38-8.86zm0 0M341.6 179.28c-12.22-12.31-32-6.4-42.92 4.43-13.14 13.05-15.27 32.29-4.75 42.89 12.21 12.3 32 6.4 42.91-4.44 10.93-10.83 16.97-30.58 4.76-42.88zm-8.4 19.42c-.66 4.43-3.18 9.1-6.92 12.82-4.84 4.8-15.62 10.64-21.7 4.5-4.62-4.64-2.48-14.56 4.67-21.66 7.13-7.07 26.34-12.08 23.94 4.34zm0 0M309.56 295.97c12.21 12.31 32 6.4 42.92-4.43 10.91-10.84 16.96-30.58 4.75-42.88-12.21-12.31-32-6.41-42.92 4.43-13.14 13.04-15.27 32.28-4.75 42.88zm15.32-32.24c4.75-4.7 15.57-10.7 21.7-4.5 6.09 6.13.16 16.87-4.67 21.66-4.86 4.82-15.6 10.66-21.7 4.51-4.62-4.65-2.48-14.57 4.67-21.67zm0 0M133.1 219.73c-7.35 29.11 12.42 42.15 29.85 53.65 15.3 10.1 26 20.88 35.98 36.26 12.6 19.4 28.16 36.44 53.43 30.26 18.94-4.63 33.37-18.43 38.58-36.92 4.15-14.71 1.5-29.12-6.91-37.6-6.6-6.65-6.71-12.61-6.86-20.87-.18-9.89-.4-22.2-13.35-35.25s-25.26-13.36-35.15-13.62c-8.25-.21-14.22-.37-20.81-7.01-5.77-5.81-14.44-9-24.43-9a52.36 52.36 0 00-50.34 40.1zm50.33-25.1c5.88 0 10.9 1.66 13.78 4.56 10.84 10.92 22.06 11.21 31.07 11.45 9.04.23 16.19.41 24.9 9.18 8.7 8.78 8.83 15.92 9 24.97.16 9.01.36 20.23 11.2 31.16 4.48 4.5 5.73 13.73 3.13 22.96-3.73 13.21-14.09 23.1-27.71 26.42-18.76 4.58-28.23-9.91-37.28-23.86-11.1-17.11-23.28-29.38-40.3-40.61-18.61-12.27-28.11-19.51-23.58-37.46a37.35 37.35 0 0135.8-28.78zm0 0"/><path d="M440.32 295.72a7.58 7.58 0 0010.54-1.2c40.28-50.68 61.42-103.37 61.14-152.37-.25-43.45-17.27-82.02-47.93-108.6-27.73-24.03-63.6-35.6-101-32.58C324.57 4.1 287.7 22.27 256 53.65 226.03 24 191.22 6.04 154.9 1.58c-35.31-4.33-70.18 4.54-98.18 24.97C27.73 47.71 8.36 79.65 2.18 116.5c-6.86 40.85 2.57 86.13 27.28 130.92 17.39 31.52 42.27 62.86 73.98 93.13 42.03 40.14 90.17 73.53 140.36 102.6a24.38 24.38 0 0024.4 0c67.5-39.17 122.24-81.35 162.72-125.37a7.5 7.5 0 10-11.04-10.15c-39.46 42.9-93.03 84.14-159.2 122.54a9.25 9.25 0 01-9.36 0c-1.37-.78-2.75-1.59-4.13-2.4A46579.57 46579.57 0 00378.3 300.1c20.89-20.73 23.24-52.35 5.24-70.5a41.25 41.25 0 00-15.23-9.68 59.48 59.48 0 006.99-12.06c3-6.96 4.5-14.26 4.46-21.35-.06-11.36-4.03-22.2-12.1-30.34-9.81-9.87-23.99-14-38.52-11.78.7-4.42.85-8.94.34-13.4-2.46-21.63-20.46-37.27-42.08-37.53-12-.15-23.87 4.1-33.49 11.2-11.36-32-50.92-33.69-74.83-15.22-1.84 1.42-56.38 55.85-85.05 84.87a7.5 7.5 0 0010.66 10.54c26.51-26.76 52.82-53.75 79.69-80.15 11.54-11.34 31.33-17.93 45.85-7.71 7.3 5.14 11.18 13.8 11.26 22.61.05 6.84 8.87 9.98 13.25 4.75 12.12-14.49 37.14-23.18 52.26-8 9.44 9.5 9.45 24.43 4.17 36-2.78 6.07 3.76 12.7 9.88 9.95 13.27-5.94 27.39-4.2 35.96 4.44 10.27 10.35 10.23 27.71.96 41.82a46.67 46.67 0 01-9.34 10.38c-5.27 4.33-2.16 13.18 4.64 13.3 12.4.2 23.4 8.02 26.5 20.24 2.73 10.8-.57 23.78-9.4 34.12-24.76 29.02-54.22 53.45-81.56 79.93-18.03 18.03-36.64 35.53-54.96 53.27-47.07-28.65-87.44-58.95-120.06-90.1-28.96-27.65-51.97-56.1-68.46-84.66 2.64-2.69 28.22-28.64 38.29-38.84a7.5 7.5 0 00-.07-10.6 7.57 7.57 0 00-10.6.07c-11.9 12.05-34.92 35.4-35.08 35.57-19.53-38.82-26.76-77.44-20.91-112.25 5.53-32.96 22.8-61.48 48.59-80.3 24.9-18.2 55.99-26.07 87.51-22.2 35.04 4.29 68.74 22.64 97.47 53.06a7.5 7.5 0 0010.9 0c30.31-32.08 65.87-50.62 102.85-53.61 33.35-2.7 65.3 7.58 89.96 28.96 51.82 44.92 67.24 136.65-15.14 240.3a7.5 7.5 0 001.21 10.53zm0 0"/></svg>